SplineFontDB: 3.0
FontName: Albane
FullName: Albane
FamilyName: Albane
Weight: Medium
Copyright: Created by Guillaume Ayoub with FontForge 2.0 (http://fontforge.sf.net)
UComments: "2014-6-9: Created." 
Version: 001.000
ItalicAngle: 0
UnderlinePosition: -100
UnderlineWidth: 50
Ascent: 720
Descent: 280
LayerCount: 2
Layer: 0 0 "Arri+AOgA-re"  1
Layer: 1 0 "Avant"  0
XUID: [1021 779 1303216649 11122949]
FSType: 0
OS2Version: 0
OS2_WeightWidthSlopeOnly: 0
OS2_UseTypoMetrics: 1
CreationTime: 1402326609
ModificationTime: 1414333139
OS2TypoAscent: 0
OS2TypoAOffset: 1
OS2TypoDescent: 0
OS2TypoDOffset: 1
OS2TypoLinegap: 90
OS2WinAscent: 0
OS2WinAOffset: 1
OS2WinDescent: 0
OS2WinDOffset: 1
HheadAscent: 0
HheadAOffset: 1
HheadDescent: 0
HheadDOffset: 1
MarkAttachClasses: 1
DEI: 91125
Encoding: UnicodeBmp
UnicodeInterp: none
NameList: Adobe Glyph List
DisplaySize: -36
AntiAlias: 1
FitToEm: 1
WinInfo: 0 21 18
BeginPrivate: 1
BlueValues 41 [-270 -260 -10 0 420 430 650 660 695 705]
EndPrivate
BeginChars: 65536 169

StartChar: n
Encoding: 110 110 0
Width: 536
VWidth: 0
Flags: W
HStem: -4 30<191.917 237.182 459.917 505.182> 358 38<42 99.4418> 365 65<250.151 352.087>
VStem: 100 86<33.9572 326.689> 368 86<33.9572 351.09>
LayerCount: 2
Fore
SplineSet
100 351 m 25xb8
 42 358 l 25
 42 396 l 21xd8
 100 396 152 410 192 455 c 1
 188 436 186 419 186 377 c 2
 186 351 l 1
 237 402 260 430 342 430 c 3
 412 430 454 373 454 286 c 10
 454 52 l 18
 454 32 496 32 502 26 c 1
 505 23 506 22 506 -4 c 1
 482 -1 453.576 0 420 0 c 27
 374.344 0 333 -1 303 -4 c 1
 303 9 305 16 309 20 c 1
 322 33 368 28 368 52 c 10
 368 286 l 18
 368 319 353 365 316 365 c 3
 261 365 243 350 186 312 c 9
 186 52 l 18
 186 32 228 32 234 26 c 1
 237 23 238 22 238 -4 c 1
 214 -1 185.576 0 152 0 c 27
 106.344 0 65 -1 35 -4 c 1
 35 9 38 16 42 20 c 1
 55 33 100 28 100 52 c 10
 100 351 l 25xb8
EndSplineSet
EndChar

StartChar: dotlessi
Encoding: 305 305 1
Width: 278
VWidth: 0
Flags: W
HStem: -4 30<196.917 242.182> 358 38<47 103.998>
VStem: 105 86<33.9572 351>
LayerCount: 2
Fore
SplineSet
191 370 m 10
 191 52 l 18
 191 32 233 32 239 26 c 1
 242 23 243 22 243 -4 c 1
 219 -1 190 0 157 0 c 27
 111 0 70 -1 40 -4 c 1
 40 9 43 16 47 20 c 1
 60 33 105 28 105 52 c 10
 105 351 l 25
 47 358 l 25
 47 396 l 17
 104 396 157 410 197 455 c 1
 193 436 191 413 191 370 c 10
EndSplineSet
EndChar

StartChar: uni0237
Encoding: 567 567 3
Width: 276
VWidth: 0
Flags: W
HStem: 358 38<52 108.554>
VStem: 110 86<-62.912 351> 122 74<-64.152 166.004>
LayerCount: 2
Fore
SplineSet
196 46 m 18xc0
 196 -116 45 -266 45 -266 c 17
 40 -272 29 -271 19 -260 c 9
 -26 -201 l 17
 -33 -192 -32 -183 -20 -175 c 1
 32 -140 122 -119 122 -71 c 3xa0
 122 -45 110 94 110 189 c 10
 110 351 l 25xc0
 52 358 l 25
 52 396 l 17
 108 396 162 410 202 455 c 1
 198 436 196 416 196 370 c 9xa0
 196 46 l 18xc0
EndSplineSet
EndChar

StartChar: period
Encoding: 46 46 4
Width: 260
VWidth: 0
Flags: W
HStem: -13 112<81.6577 168.342>
VStem: 70 110<-1.78199 87.782>
LayerCount: 2
Fore
SplineSet
125 99 m 31
 155.612 99 180 73.6123 180 43 c 31
 180 12.3877 155.612 -13 125 -13 c 31
 94.3877 -13 70 12.3877 70 43 c 31
 70 73.6123 94.3877 99 125 99 c 31
EndSplineSet
EndChar

StartChar: h
Encoding: 104 104 6
Width: 546
VWidth: 0
Flags: W
HStem: -4 30<196.917 242.182 469.917 515.182> 365 65<257.534 362.087> 608 38<46 103.715> 685 20G<177 195>
VStem: 105 86<33.9572 326.145 352 601> 378 86<33.9572 349.298>
LayerCount: 2
Fore
SplineSet
105 601 m 25
 46 608 l 25
 46 646 l 17
 104 646 157 660 197 705 c 1
 193 686 191 656 191 614 c 2
 191 352 l 1
 242 403 270 430 352 430 c 7
 422 430 464 374 464 287 c 10
 464 52 l 18
 464 32 506 32 512 26 c 1
 515 23 516 22 516 -4 c 1
 492 -1 463.576 0 430 0 c 27
 384.344 0 343 -1 313 -4 c 1
 313 9 316 16 320 20 c 1
 333 33 378 28 378 52 c 10
 378 287 l 18
 378 320 363 365 326 365 c 3
 271 365 248 351 191 313 c 9
 191 52 l 18
 191 32 233 32 239 26 c 1
 242 23 243 22 243 -4 c 1
 219 -1 190.576 0 157 0 c 27
 111.344 0 70 -1 40 -4 c 1
 40 9 42 16 46 20 c 1
 59 33 105 28 105 52 c 10
 105 601 l 25
EndSplineSet
EndChar

StartChar: m
Encoding: 109 109 7
Width: 793
VWidth: 0
Flags: W
HStem: -4 30<191.917 237.182 453.917 499.182 716.917 762.182> 358 38<42 99.4418> 365 65<247.769 347.391 514.495 609.087>
VStem: 100 86<33.9572 326.689> 363 85<33.9572 313> 625 86<33.9572 351.09>
CounterMasks: 1 1c
LayerCount: 2
Fore
SplineSet
100 351 m 1xbc
 42 358 l 1
 42 396 l 1xdc
 100 396 152 410 192 455 c 1
 188 436 186 419 186 377 c 2
 186 351 l 1
 237 402 255 430 337 430 c 3
 393 430 429 406 443 346 c 1
 492 394 521 430 599 430 c 3
 669 430 711 373 711 286 c 2
 711 52 l 2
 711 32 753 32 759 26 c 0
 762 23 763 22 763 -4 c 1
 739 -1 718 0 677 0 c 3
 636 0 590 -1 560 -4 c 1
 560 9 563 16 567 20 c 0
 580 33 625 28 625 52 c 2
 625 286 l 2
 625 319 610 365 573 365 c 3
 518 365 505 350 448 312 c 1
 448 313 l 1
 448 309 448 304 448 299 c 2
 448 52 l 2
 448 32 490 32 496 26 c 0
 499 23 500 22 500 -4 c 1
 476 -1 456 0 415 0 c 3
 374 0 328 -1 298 -4 c 1
 298 9 300 16 304 20 c 0
 317 33 363 28 363 52 c 2
 363 286 l 2
 363 319 348 365 311 365 c 3
 256 365 243 350 186 312 c 1
 186 52 l 2
 186 32 228 32 234 26 c 0
 237 23 238 22 238 -4 c 1
 214 -1 193 0 152 0 c 3
 111 0 65 -1 35 -4 c 1
 35 9 38 16 42 20 c 0
 55 33 100 28 100 52 c 2
 100 351 l 1xbc
EndSplineSet
EndChar

StartChar: l
Encoding: 108 108 8
Width: 273
VWidth: 0
Flags: W
HStem: -4 30<196.917 242.182> 613 33<35 70> 685 20G<177 195>
VStem: 105 86<33.9572 599>
LayerCount: 2
Fore
SplineSet
105 52 m 10
 105 599 l 17
 35 613 l 1
 35 646 l 1
 93 646 157 660 197 705 c 1
 193 686 191 655 191 612 c 2
 191 52 l 18
 191 32 233 32 239 26 c 0
 242 23 243 22 243 -4 c 1
 219 -1 185 0 144 0 c 0
 103 0 70 -1 40 -4 c 1
 40 9 42 16 46 20 c 0
 59 33 105 28 105 52 c 10
EndSplineSet
EndChar

StartChar: r
Encoding: 114 114 9
Width: 426
VWidth: 0
Flags: W
HStem: -4 30<192.043 237.182> 358 38<42 98.5536> 359 71<260.442 363.5>
VStem: 100 86<33.697 312.488 338 351> 342 79<325.7 354.424>
LayerCount: 2
Fore
SplineSet
303 359 m 3xb8
 263 359 243 337 186 299 c 9
 186 52 l 17
 186 32 229 31 234 26 c 1
 237 23 238 22 238 -4 c 1
 215 0 185.576 0 152 0 c 27
 106.344 0 65 0 35 -4 c 1
 35 9 38 16 42 20 c 1
 55 33 100 29 100 52 c 9
 100 351 l 25
 42 358 l 25
 42 396 l 17xd8
 98 395 152 409 192 455 c 1
 188 435 186 406 186 364 c 2
 186 338 l 1
 237 389 262 430 335 430 c 3
 392 430 421 355 421 338 c 3
 421 317 360 299 342 299 c 1
 336 315 341 359 303 359 c 3xb8
EndSplineSet
EndChar

StartChar: u
Encoding: 117 117 10
Width: 546
VWidth: 0
Flags: W
HStem: -10 59<199.124 309.069> 24 44<484.353 521> 387 30<30.8175 84.4963 285.818 344.443> 410 20G<157 174 414 436>
VStem: 88 86<76.6922 380.904> 350 86<71.7115 380.36>
LayerCount: 2
Fore
SplineSet
436 430 m 1x1c
 436 87 l 18
 436 65 453 55 475 55 c 3
 489 55 509 62 521 68 c 9
 521 24 l 17x5c
 343 -10 l 1
 346 0 350 13 350 37 c 2
 350 42 l 1
 318 10 272 -10 226 -10 c 3
 140 -10 88 56 88 146 c 10
 88 365 l 18
 88 385 39 382 34 387 c 1
 31 390 30 391 30 417 c 1xac
 53 413 140 430 174 430 c 1x1c
 174 133 l 2
 174 99 198 49 252 49 c 3
 288 49 313 58 350 87 c 9
 350 365 l 18
 350 385 294 382 289 387 c 1
 286 390 285 391 285 417 c 1xac
 308 413 392 430 436 430 c 1x1c
EndSplineSet
EndChar

StartChar: d
Encoding: 100 100 11
Width: 532
VWidth: 0
Flags: W
HStem: -10 39<204.57 298.555> 23 23<465.182 497> 391 39<186.176 308.468> 613 33<275 317> 685 20G<419 437>
VStem: 35 97<113.561 303.635> 347 85<51.4072 353.375 411 601>
LayerCount: 2
Fore
SplineSet
458 46 m 2x7e
 497 46 l 9
 497 23 l 17x7e
 347 -10 l 1
 347 43 l 1
 299 3 261 -10 249 -10 c 3xbe
 114 -10 35 84 35 202 c 3
 35 358 162 430 255 430 c 3
 302 430 324 424 347 411 c 1
 347 601 l 1
 275 613 l 1
 275 646 l 1
 333 646 399 660 439 705 c 1
 435 686 432 655 432 613 c 2
 432 72 l 2
 432 56 441 46 458 46 c 2x7e
347 261 m 2
 347 334 326 391 243 391 c 3
 199 391 132 357 132 228 c 3
 132 127 176 29 262 29 c 3xbe
 309 29 338 62 347 72 c 1
 347 261 l 2
EndSplineSet
EndChar

StartChar: o
Encoding: 111 111 12
Width: 505
VWidth: 0
Flags: W
HStem: -10 39<204.57 318.415> 391 39<186.176 302.907>
VStem: 35 97<113.561 303.635> 373 97<106.322 307.432>
LayerCount: 2
Fore
SplineSet
243 391 m 3
 199 391 132 357 132 228 c 3
 132 127 176 29 262 29 c 3
 313 29 373 70 373 188 c 3
 373 287 338 391 243 391 c 3
35 202 m 3
 35 358 162 430 255 430 c 3
 388 430 470 332 470 214 c 3
 470 67 378 -10 249 -10 c 3
 114 -10 35 84 35 202 c 3
EndSplineSet
EndChar

StartChar: q
Encoding: 113 113 13
Width: 504
VWidth: 0
Flags: W
HStem: -274 30<437.917 483.182> -10 39<204.57 310.042> 391 39<186.176 308.322>
VStem: 35 97<113.561 303.635> 347 85<-235.99 30 43.8727 353.377>
LayerCount: 2
Fore
SplineSet
35 202 m 3
 35 358 162 430 255 430 c 3
 302 430 342 418 367 397 c 1
 439 430 l 1
 435 411 432 381 432 339 c 2
 432 -218 l 2
 432 -238 474 -238 480 -244 c 0
 483 -247 484 -248 484 -274 c 1
 460 -271 426 -270 385 -270 c 0
 344 -270 311 -271 281 -274 c 1
 281 -261 284 -255 288 -251 c 0
 301 -238 347 -242 347 -218 c 2
 347 30 l 1
 314 6 261 -10 249 -10 c 3
 114 -10 35 84 35 202 c 3
347 261 m 2
 347.363 334.006 326 391 243 391 c 3
 199 391 132 357 132 228 c 3
 132 127 176 29 262 29 c 3
 309 29 337 49 346 59 c 1
 347 261 l 2
EndSplineSet
EndChar

StartChar: a
Encoding: 97 97 14
Width: 471
VWidth: 0
Flags: W
HStem: -10 75<336.971 412.911> -10 56<137.732 241.453> 381 49<164.509 270.918>
VStem: 40 84<59.5496 154.736> 53 91<280.095 360.621> 280 86<66.6946 221> 287 79<260.999 364.973>
LayerCount: 2
Fore
SplineSet
124 110 m 3x74
 124 63 154 46 190 46 c 27
 229 46 259 63 280 84 c 9
 280 221 l 17
 231 187 124 187 124 110 c 3x74
366 286 m 10x6a
 366 104 l 18x64
 366 90 369 65 388 65 c 11
 409.958 65 424 74 435 96 c 9
 451 68 l 17
 428 19 401.849 -10 353 -10 c 27
 320.941 -10 287 7 287 39 c 1xa2
 247 11 202 -10 176 -10 c 3
 102 -10 40 24 40 98 c 3
 40 203 196 211 280 260 c 9x74
 282.73 281.45 287 293.377 287 315 c 27
 287 349.011 260 381 230 381 c 3
 159 381 153 353 144 326 c 0
 135 301 130.35 274 105 274 c 27
 80.9805 274 53 282.98 53 307 c 27
 53 331.789 63 352 79 365 c 0
 96 379 201 430 242 430 c 3
 338 430 366 396 366 286 c 10x6a
EndSplineSet
EndChar

StartChar: exclam
Encoding: 33 33 16
Width: 270
VWidth: 0
Flags: W
HStem: -13 112<86.6577 173.342> 640 20G<137.271 162.385>
VStem: 75 110<-1.78199 87.782> 85 100<544.1 656.771>
LayerCount: 2
Fore
SplineSet
85 654 m 0xd0
 85 654 124.542 660 150 660 c 27
 174.771 660 185 631.771 185 607 c 27
 185 443.588 167.31 352.02 156 189 c 17
 139 184 138.602 177 126 177 c 27
 121.113 177 118 179 115 183 c 1
 85 654 l 0xd0
EndSplineSet
Refer: 4 46 S 1 0 0 1 5 0 2
EndChar

StartChar: p
Encoding: 112 112 17
Width: 549
VWidth: 0
Flags: W
HStem: -274 30<198.725 255.182> -10 39<231.937 362.869> 364 32<35 70> 391 39<238.709 347.386>
VStem: 105 86<-234.586 46 57.5957 350> 417 97<106.322 307.432>
LayerCount: 2
Fore
SplineSet
105 -218 m 2xdc
 105 350 l 1
 35 364 l 1
 35 396 l 1
 93 396 157 410 197 455 c 1
 194 440 192 394 191 364 c 1xec
 220 403 257 430 300 430 c 3
 433 430 514 332 514 214 c 3
 514 67 423 -10 294 -10 c 3
 256 -10 219 12 191 46 c 1
 191 -218 l 2
 191 -238 246 -238 252 -244 c 0
 255 -247 256 -248 256 -274 c 1
 232 -271 185 -270 144 -270 c 0
 103 -270 70 -271 40 -274 c 1
 40 -261 42 -255 46 -251 c 0
 59 -238 105 -242 105 -218 c 2xdc
191 325 m 1
 191 87 l 1
 209 51 243 29 306 29 c 3
 357 29 417 70 417 188 c 3
 417 287 382 391 287 391 c 3xdc
 245 391 212 365 191 325 c 1
EndSplineSet
EndChar

StartChar: b
Encoding: 98 98 18
Width: 530
VWidth: 0
Flags: W
HStem: -10 39<219.882 342.803> 391 39<203.052 327.407> 613 33<15 50> 685 20G<157 175>
VStem: 85 86<72.3594 364.512 398 599> 397 98<106.322 307.432>
LayerCount: 2
Fore
SplineSet
85 599 m 1
 15 613 l 5
 15 646 l 5
 73 646 137 660 177 705 c 1
 173 686 171 655 171 612 c 2
 171 398 l 1
 199 425 245 430 280 430 c 3
 413 430 495 332 495 214 c 3
 495 67 402 -10 273 -10 c 3
 204 -10 127 11 85 58 c 1
 85 599 l 1
171 343 m 1
 171 131 l 2
 171 71 227 29 287 29 c 3
 338 29 397 70 397 188 c 3
 397 287 362 391 267 391 c 3
 243 391 196 379 171 343 c 1
EndSplineSet
EndChar

StartChar: e
Encoding: 101 101 19
Width: 444
VWidth: 0
Flags: W
HStem: -10 39<200.928 331.133> 222 43<135 283.846> 235 30<262.154 328> 391 39<184.054 286.876>
VStem: 35 97<112.708 222 265 307.656> 328 86<265 333.155>
LayerCount: 2
Fore
SplineSet
328 265 m 1xbc
 328 331 297 391 236 391 c 3
 197 391 147 364 135 265 c 1xdc
 328 265 l 1xbc
249 430 m 3
 326 430 414 364 414 235 c 1xbc
 132 222 l 1
 132 121 179 29 255 29 c 3
 306 29 354 53 385 93 c 1
 405 81 l 1
 372 20 321 -10 243 -10 c 3
 108 -10 35 72 35 198 c 7
 35 372 156 430 249 430 c 3
EndSplineSet
EndChar

StartChar: c
Encoding: 99 99 20
Width: 345
VWidth: 0
Flags: W
HStem: -10 30<170.294 269.114> 300 30<155.546 240.298>
VStem: 35 75<79.7411 240.189>
LayerCount: 2
Fore
SplineSet
200 300 m 3
 166.366 300 110 274.021 110 175 c 3
 110 97 148.992 20 215 20 c 3
 254 20 286.5 40 310 71 c 9
 330 60 l 17
 304.5 13 265.035 -10 205 -10 c 3
 100.88 -10 35 63.9531 35 155 c 3
 35 275.004 138.5 330 210 330 c 3
 272.508 330 320 297 320 279 c 3
 320 262 308 245 287 245 c 3
 262 245 252.51 300 200 300 c 3
EndSplineSet
EndChar

StartChar: c
Encoding: 99 99 21
Width: 443
VWidth: 0
Flags: W
HStem: -10 39<210.36 340.138> 391 39<191.174 301.325>
VStem: 35 97<119.979 307.25>
LayerCount: 2
Fore
SplineSet
249 391 m 7
 205 391 132 357 132 228 c 7
 132 127 183 29 269 29 c 7
 320 29 361 55 392 95 c 13
 418 81 l 21
 385 20 333 -10 255 -10 c 7
 120 -10 35 62 35 212 c 7
 35 368 169 430 262 430 c 7
 343 430 405 387 405 364 c 7
 405 342 389 319 362 319 c 7
 330 319 317 391 249 391 c 7
EndSplineSet
EndChar

StartChar: s
Encoding: 115 115 22
Width: 369
VWidth: 0
Flags: W
HStem: -10 39<115.353 233.186> 391 39<140.615 248.87>
VStem: 35 23<93.3392 118.205> 41 85<276.651 372.616> 249 85<42.2114 144.796> 290 23<307.934 335.515>
LayerCount: 2
Fore
SplineSet
334 125 m 3xd8
 334 16 261 -10 188 -10 c 3
 131 -10 72 6 51 16 c 1
 35 116 l 1
 45 120 53 120 58 120 c 1
 76 58 137 29 175 29 c 3
 235 29 249 57 249 99 c 3xe8
 249 146 203 164 171 174 c 0
 147 182 41 214 41 300 c 3
 41 402 132 430 205 430 c 3
 262 430 277 421 298 411 c 1
 313 310 l 1
 303 306 295 307 290 307 c 1xd4
 272 369 230 391 192 391 c 3
 143 391 126 364 126 326 c 3
 126 277 171 256 211 243 c 0
 249 231 334 195 334 125 c 3xd8
EndSplineSet
EndChar

StartChar: g
Encoding: 103 103 23
Width: 471
VWidth: 0
Flags: W
HStem: -270 39<161.029 308.596> -26 72<150.27 337.947> 117 39<179.445 281.885> 351 61<388 437> 391 39<167.506 261.738>
VStem: 35 84<-193.837 -93.804> 47 85<203.929 340.566> 307 85<195.847 339.927> 385 59<-163.065 -68.8622>
LayerCount: 2
Fore
SplineSet
307 396 m 17xf1
 451 412 l 1
 444 396 437 366 437 351 c 9
 307 351 l 25
 307 396 l 17xf1
171 -26 m 17
 126 -62 119 -108 119 -146 c 3
 119 -176 153 -231 229 -231 c 3
 273 -231 385 -209 385 -120 c 3xe480
 385 -75 332 -26 269 -26 c 10
 171 -26 l 17
132 166 m 9xe2
 184 143 l 17
 163 118 132 75 132 58 c 3xe2
 132 47 281 46 281 46 c 2
 366 39 444 3 444 -107 c 3
 444 -163 352 -270 210 -270 c 3
 111 -270 35 -233 35 -146 c 3
 35 -124 52 -86 119 -26 c 1xe480
 81 -26 41 11 41 46 c 1
 85 65 132 146 132 166 c 9xe2
217 391 m 3xeb
 170 391 132 351 132 286 c 3
 132 220 169 156 229 156 c 3
 278 156 307 186 307 254 c 3
 307 316 272 391 217 391 c 3xeb
47 260 m 3
 47 351 124 430 229 430 c 3
 332 430 392 335 392 280 c 3
 392 185 324 117 217 117 c 3
 110 117 47 203 47 260 c 3
EndSplineSet
EndChar

StartChar: f
Encoding: 102 102 24
Width: 335
VWidth: 0
Flags: W
HStem: -4 30<183.864 241.182> 370 50<48.3193 296.52> 646 59<232.476 325.677>
VStem: 91 85<35.6212 559.355>
LayerCount: 2
Fore
SplineSet
237 370 m 2
 91 370 l 2
 59 370 48 367 30 364 c 1
 30 386 36 411 60 420 c 9
 322 420 l 17
 296 364 l 5
 290 365 272 370 237 370 c 2
176 455 m 2
 176 52 l 2
 176 32 232 32 238 26 c 0
 241 23 242 22 242 -4 c 1
 218 -1 171 0 130 0 c 0
 89 0 56 -1 26 -4 c 1
 26 9 28 16 32 20 c 0
 45 33 91 28 91 52 c 2
 91 455 l 2
 91 639 245 705 318 705 c 3
 375 705 430 650 430 633 c 3
 430 612 376 587 358 587 c 1
 322 631 315 646 254 646 c 3
 214 646 176 607 176 455 c 2
EndSplineSet
EndChar

StartChar: t
Encoding: 116 116 25
Width: 367
VWidth: 0
Flags: W
HStem: -10 39<198.392 285.086> 375 45<165 302.156>
VStem: 93 86<44.8524 375> 165 14<375 420>
LayerCount: 2
Fore
SplineSet
166 515 m 3xe0
 178.042 515 179 505 179 505 c 1xd0
 179 173 l 2
 179 72 189 29 237 29 c 3
 270 29 296 53 327 93 c 1
 347 81 l 1
 314 20 271 -10 223 -10 c 3
 134 -10 93 36 93 154 c 2
 93 375 l 25
 35 375 l 17
 35 388 45.1758 398.81 55 408 c 0
 86 437 155.802 515 166 515 c 3xe0
249 375 m 6
 165 375 l 25
 165 420 l 25
 327 420 l 21
 301 370 l 5
 295 371 284 375 249 375 c 6
EndSplineSet
EndChar

StartChar: v
Encoding: 118 118 26
Width: 455
VWidth: 0
Flags: W
HStem: -10 21G<219.462 241.667> 394 26<299.517 342.639>
LayerCount: 2
Fore
SplineSet
450 420 m 1
 450 407 448 404 444 400 c 1
 431 387 406 390 398 368 c 10
 262 0 l 18
 258.267 -10.1025 240.571 -10 226 -10 c 27
 212.925 -10 197.643 -9.7832 194 0 c 10
 57 368 l 18
 50 386 14 389 9 394 c 1
 6 397 5 394 5 420 c 1
 215 420 l 1
 215 407 212 404 208 400 c 1
 195 387 142 390 150 368 c 10
 267 39 l 25
 215 0 l 9
 351 368 l 18
 357 386 308 389 303 394 c 1
 300 397 299 394 299 420 c 1
 450 420 l 1
EndSplineSet
EndChar

StartChar: w
Encoding: 119 119 27
Width: 676
VWidth: 0
Flags: W
HStem: -10 21G<206.462 228.667 440.462 462.667> 394 26<520.517 564.083>
LayerCount: 2
Fore
SplineSet
671 420 m 1
 671 407 669 404 665 400 c 1
 652 387 628 390 619 368 c 10
 483 0 l 18
 479.267 -10.1025 461.571 -10 447 -10 c 27
 433.925 -10 418.101 -10.9707 415 0 c 10
 311 368 l 18
 305 386 268 389 263 394 c 1
 260 397 259 394 259 420 c 1
 462 420 l 1
 462 407 459 404 455 400 c 1
 442 387 390 390 397 368 c 10
 488 39 l 25
 436 0 l 9
 572 368 l 18
 579 386 529 389 524 394 c 1
 521 397 520 394 520 420 c 1
 671 420 l 1
202 420 m 1
 202 407 199 404 195 400 c 1
 182 387 142 390 150 368 c 10
 254 39 l 25
 202 0 l 9
 338 368 l 25
 385 368 l 25
 249 0 l 18
 245.267 -10.1025 227.571 -10 213 -10 c 27
 199.925 -10 184.439 -10.207 181 0 c 10
 57 368 l 18
 50 386 14 389 9 394 c 1
 6 397 5 394 5 420 c 1
 202 420 l 1
EndSplineSet
EndChar

StartChar: z
Encoding: 122 122 28
Width: 421
VWidth: 0
Flags: W
HStem: 0 75<146 334.997> 345 75<88.6919 281>
VStem: 35 24<274.795 300.574> 368 23<118.783 142.205>
LayerCount: 2
Fore
SplineSet
390 420 m 9
 146 75 l 29
 251 75 l 6
 289 75 350 82 368 144 c 5
 373 144 381 144 391 140 c 5
 376 13 l 1
 355 3 295 0 238 0 c 2
 30 0 l 25
 281 345 l 17
 156 345 l 2
 118 345 77 335 59 273 c 1
 54 273 45 273 35 277 c 1
 51 400 l 1
 72 410 86 420 143 420 c 2
 390 420 l 9
EndSplineSet
EndChar

StartChar: y
Encoding: 121 121 29
Width: 468
VWidth: 0
Flags: W
HStem: -270 72<76.5 144.557> -20 20G<202.5 268> 0 21G<222.391 241.667> 394 26<299.517 342.639>
LayerCount: 2
Fore
SplineSet
268 0 m 1xd0
 234 -70 197 -270 105 -270 c 3
 48 -270 45 -222 45 -205 c 3
 45 -184 87 -166 105 -166 c 1
 105 -185 109 -198 118 -198 c 3
 158 -198 190 -60 215 0 c 9
 268 0 l 1xd0
463 420 m 1
 463 407 461 404 457 400 c 1
 444 387 420 390 411 368 c 10
 268 0 l 25
 207 -26 l 25
 57 368 l 18
 50 386 14 389 9 394 c 1
 6 397 5 394 5 420 c 1
 215 420 l 1
 215 407 212 404 208 400 c 1
 195 387 142 390 150 368 c 10
 267 39 l 25
 215 0 l 9
 351 368 l 18
 357 386 308 389 303 394 c 1
 300 397 299 394 299 420 c 1
 463 420 l 1
EndSplineSet
EndChar

StartChar: k
Encoding: 107 107 30
Width: 517
VWidth: 0
Flags: MW
HStem: -4 30<196.917 242.182> 208 39<191 202> 394 26<264.517 308.283> 608 38<46 103.715> 685 20G<177 195>
VStem: 105 86<33.9572 208 247 601>
DStem2: 202 247 270 240 0.68089 0.732386<41.1738 167.29> 270 240 202 208 0.697461 -0.716622<0 192.159>
LayerCount: 2
Fore
SplineSet
454 420 m 1
 454 407 452 404 448 400 c 1
 435 387 405 385 389 368 c 10
 270 240 l 29
 452 53 l 22
 468 36 498 33 511 20 c 1
 515 16 517 10 517 -3 c 1
 487 1 457.862 1 420 1 c 27
 373.562 1 324 1 301 -3 c 1
 301 23 302 24 305 27 c 1
 310 32 367 40 353 53 c 14
 202 208 l 21
 191 208 l 9
 191 52 l 18
 191 32 233 32 239 26 c 1
 242 23 243 22 243 -4 c 1
 219 -1 190.576 0 157 0 c 27
 111.344 0 70 -1 40 -4 c 1
 40 9 42 16 46 20 c 1
 59 33 105 28 105 52 c 10
 105 601 l 25
 46 608 l 25
 46 646 l 17
 104 646 157 660 197 705 c 1
 193 686 191 656 191 614 c 2
 191 247 l 1
 202 247 l 9
 316 368 l 18
 330 382 273 389 268 394 c 1
 265 397 264 394 264 420 c 1
 454 420 l 1
EndSplineSet
EndChar

StartChar: x
Encoding: 120 120 31
Width: 463
VWidth: 0
Flags: MW
HStem: -20 20G<73.4068 107.372> -4 30<129.995 178.182> 390 30<268.818 307.005> 397 23<11.4917 59.192>
DStem2: 70 52 130 48 0.589573 0.807715<26.2057 179.773 276.746 399.379> 138 420 80 368 0.564493 -0.825438<0 178.614 252.041 455.067>
LayerCount: 2
Fore
SplineSet
268 420 m 1x90
 268 394 269 393 272 390 c 1x20
 277 385 324.51 392.36 307 368 c 14
 238 272 l 29
 138 420 l 17
 9 420 l 1
 9 407 12 401 16 397 c 1
 29 384 58.0791 400.055 80 368 c 10
 186 213 l 25
 70 52 l 18
 47.4355 20.6816 25 33 12 20 c 1
 8 16 5 9 5 -4 c 1x50
 35 0 56.8135 0 90 0 c 27x80
 124.745 0 156 0 179 -4 c 1
 179 22 178 23 175 26 c 1x40
 170 31 114.154 25.8896 130 48 c 10
 216 168 l 25
 330 0 l 25
 330 0 429 0 458 0 c 1
 458 13 455 16 451 20 c 1
 438 33 409.66 20.7656 389 51 c 10
 266 231 l 29
 366 368 l 22
 384.162 392.883 412 384 425 397 c 1
 429 401 432 407 432 420 c 1
 268 420 l 1x90
EndSplineSet
EndChar

StartChar: O
Encoding: 79 79 32
Width: 729
VWidth: 0
Flags: W
HStem: -10 42<290.025 470.628> 619 41<265.727 440.764>
VStem: 40 101<202.589 449.026> 589 100<186.044 448.246>
LayerCount: 2
Fore
SplineSet
344 619 m 3
 219 619 141 501 141 337 c 3
 141 176 218 32 385 32 c 3
 503 32 589 124 589 301 c 3
 589 436 540 619 344 619 c 3
40 313 m 3
 40 523 175 660 356 660 c 3
 575 660 689 494 689 325 c 3
 689 85 535 -10 374 -10 c 3
 168 -10 40 120 40 313 c 3
EndSplineSet
EndChar

StartChar: E
Encoding: 69 69 33
Width: 621
VWidth: 0
Flags: W
HStem: 0 47<198.16 495.366> 313 48<198 399.718> 408 20G<437 450.436> 603 47<198.271 479.887>
VStem: 105 93<48.9409 313 361 601.42> 412 16<239 271.421> 505 18<528 557.84> 554 17<134.984 152.471>
LayerCount: 2
Fore
SplineSet
152 0 m 2
 114 0 72 0 45 -4 c 1
 45 8 47 14 51 18 c 0
 63 30 105 26 105 47 c 2
 105 603 l 2
 105 624 63 620 51 632 c 0
 47 636 45 642 45 654 c 1
 72 650 115 650 152 650 c 2
 548 650 l 1
 523 522 l 1
 505 528 l 1
 505 528 500 603 424 603 c 2
 229 603 l 2
 222 603 198 597 198 578 c 2
 198 361 l 1
 378 361 l 2
 422 361 409 391 437 422 c 1
 453 428 l 1
 428 233 l 1
 412 239 l 1
 399 263 410 313 376 313 c 2
 198 313 l 1
 198 71 l 2
 198 53 223 47 230 47 c 2
 436 47 l 2
 520 47 554 156 554 156 c 1
 571 150 l 1
 549 0 l 1
 152 0 l 2
EndSplineSet
EndChar

StartChar: C
Encoding: 67 67 34
Width: 658
VWidth: 0
Flags: W
HStem: -10 42<290.464 529.604> 619 41<271.075 478.01>
VStem: 40 101<202.589 445.804>
LayerCount: 2
Fore
SplineSet
532 564 m 1
 556 491 l 1
 572 485 l 1
 597 613 l 1
 530 638 462 660 362 660 c 3
 181 660 40 523 40 313 c 3
 40 120 168 -10 374 -10 c 3
 465 -10 546 2 608 49 c 9
 596 85 l 17
 542 48 472 32 386 32 c 3
 219 32 141 176 141 337 c 3
 141 501 225 619 350 619 c 3
 413 619 478 615 532 564 c 1
EndSplineSet
EndChar

StartChar: G
Encoding: 71 71 35
Width: 695
VWidth: 0
Flags: W
HStem: -10 42<319.507 504.228> 286 23<399 466.364 622.915 662> 619 41<281.075 488.01>
VStem: 50 101<195.504 445.804> 508 93<36.5551 260.549>
LayerCount: 2
Fore
SplineSet
665 309 m 25
 662 286 l 17
 619 286 602 268 601 185 c 10
 601 26 l 17
 553 2 505 -10 384 -10 c 3
 178 -10 50 120 50 313 c 3
 50 523 191 660 372 660 c 3
 472 660 540 638 607 613 c 1
 582 485 l 1
 566 491 l 1
 542 564 l 1
 488 615 423 619 360 619 c 3
 235 619 151 501 151 337 c 3
 151 176 208 32 457 32 c 3
 480 32 508 38 508 68 c 2
 508 185 l 2
 508 268 469 286 399 286 c 9
 397 309 l 17
 665 309 l 25
EndSplineSet
EndChar

StartChar: D
Encoding: 68 68 36
Width: 687
VWidth: 0
Flags: W
HStem: 0 47<198.16 435.113> 603 47<198.271 411.11>
VStem: 105 93<48.9409 601.42> 547 100<187.829 448.394>
LayerCount: 2
Fore
SplineSet
343 47 m 2
 461 47 547 124 547 301 c 3
 547 436 504 603 308 603 c 2
 229 603 l 2
 222 603 198 597 198 578 c 2
 198 71 l 2
 198 53 223 47 230 47 c 2
 343 47 l 2
152 0 m 2
 114 0 72 0 45 -4 c 1
 45 8 47 14 51 18 c 0
 63 30 105 26 105 47 c 2
 105 603 l 2
 105 624 63 620 51 632 c 0
 47 636 45 642 45 654 c 1
 72 650 115 650 152 650 c 2
 320 650 l 2
 556 650 647 494 647 325 c 3
 647 85 493 0 332 0 c 2
 152 0 l 2
EndSplineSet
EndChar

StartChar: B
Encoding: 66 66 37
Width: 620
VWidth: 0
Flags: W
HStem: 0 47<198.16 421.163> 323 40<198 345.636> 603 47<198.271 366.047>
VStem: 105 93<48.9409 323 363 601.42> 434 96<431.184 545.871> 482 98<107.663 240.134>
LayerCount: 2
Fore
SplineSet
317 47 m 2xf4
 469 47 482 133 482 170 c 3
 482 265 388 323 270 323 c 6
 198 323 l 5
 198 71 l 2
 198 53 223 47 230 47 c 2
 317 47 l 2xf4
317 0 m 2
 152 0 l 2
 114 0 72 0 45 -4 c 1
 45 8 47 14 51 18 c 0
 63 30 105 26 105 47 c 2
 105 603 l 2
 105 624 63 620 51 632 c 0
 47 636 45 642 45 654 c 1
 72 650 115 650 152 650 c 2
 308 650 l 2
 456 650 530 565 530 502 c 3xf8
 530 409 436 360 379 349 c 5
 470 335 580 278 580 182 c 3
 580 84 481 0 317 0 c 2
261 603 m 2
 229 603 l 2
 222 603 198 597 198 578 c 2
 198 363 l 5
 246 363 l 6
 346 363 434 416 434 479 c 3
 434 543 389 603 261 603 c 2
EndSplineSet
EndChar

StartChar: F
Encoding: 70 70 38
Width: 610
VWidth: 0
Flags: W
HStem: -4 28<207.249 281.182> 307 48<198 405.718> 402 20G<443 456.436> 603 47<198.271 491.887>
VStem: 105 93<33.8841 307 355 601.42> 418 16<233 265.421> 517 18<528 557.84>
LayerCount: 2
Fore
SplineSet
229 603 m 2
 222 603 198 597 198 578 c 2
 198 355 l 1
 384 355 l 2
 428 355 415 385 443 416 c 1
 459 422 l 1
 434 227 l 1
 418 233 l 1
 405 257 416 307 382 307 c 2
 198 307 l 1
 198 47 l 2
 198 29 273 29 278 24 c 0
 281 21 282 19 282 -4 c 1
 260 -1 183 0 146 0 c 3
 109 0 72 -1 45 -4 c 1
 45 8 47 14 51 18 c 0
 63 30 105 26 105 47 c 2
 105 603 l 2
 105 624 63 620 51 632 c 0
 47 636 45 642 45 654 c 1
 72 650 115 650 152 650 c 2
 560 650 l 1
 535 522 l 1
 517 528 l 1
 517 528 512 603 436 603 c 2
 229 603 l 2
EndSplineSet
EndChar

StartChar: L
Encoding: 76 76 39
Width: 565
VWidth: 0
Flags: W
HStem: 0 47<205.436 483.366> 626 24<208.137 257.613>
VStem: 105 93<53.8494 618.215> 542 18<134.984 152.333>
LayerCount: 2
Fore
SplineSet
258 650 m 5
 258 626 257 628 255 626 c 0
 250 621 198 621 198 603 c 2
 198 130 l 2
 198 49 208 47 289 47 c 2
 424 47 l 2
 508 47 542 156 542 156 c 1
 560 150 l 1
 537 0 l 1
 152 0 l 2
 114 0 72 0 45 -4 c 1
 45 8 47 14 51 18 c 0
 63 30 105 26 105 47 c 2
 105 603 l 2
 105 624 63 620 51 632 c 0
 47 636 45 638 45 650 c 5
 258 650 l 5
EndSplineSet
EndChar

StartChar: I
Encoding: 73 73 40
Width: 305
VWidth: 0
Flags: W
HStem: -4 28<205.777 268.954> 626 24<210.258 269.318>
VStem: 106 92<32.9546 617.045>
LayerCount: 2
Fore
SplineSet
270 650 m 1
 270 626 268 628 266 626 c 0
 261 621 198 621 198 603 c 2
 198 47 l 2
 198 29 261 29 266 24 c 0
 268 22 270 20 270 -4 c 1
 249 0 190 0 153 0 c 7
 116 0 62 0 35 -4 c 1
 35 8 37 14 41 18 c 0
 53 30 106 26 106 47 c 2
 106 603 l 2
 106 624 53 620 41 632 c 0
 37 636 35 638 35 650 c 1
 270 650 l 1
EndSplineSet
EndChar

StartChar: H
Encoding: 72 72 41
Width: 737
VWidth: 0
Flags: W
HStem: -4 28<206.777 269.954 637.9 701.384> 307 48<199 537> 626 24<212.492 270.318 642.451 701.613>
VStem: 106 93<32.9546 246.813 559.563 616.615> 537 93<32.9546 307 355 617.045>
LayerCount: 2
Fore
SplineSet
702 650 m 1
 702 626 701 628 699 626 c 0
 694 621 630 621 630 603 c 6
 630 47 l 2
 630 29 694 29 699 24 c 0
 701 22 702 20 702 -4 c 1
 681 0 621 0 584 0 c 3
 547 0 493 0 466 -4 c 1
 466 8 468 14 472 18 c 0
 484 30 537 26 537 47 c 2
 537 307 l 1
 199 307 l 1
 199 47 l 2
 199 29 262 29 267 24 c 0
 269 22 271 20 271 -4 c 1
 250 0 184 0 147 0 c 3
 110 0 62 0 35 -4 c 1
 35 8 37 14 41 18 c 0
 53 30 106 26 106 47 c 2
 106 603 l 2
 106 624 53 620 41 632 c 0
 37 636 35 638 35 650 c 1
 271 650 l 1
 271 626 269 628 267 626 c 0
 262 621 199 620 199 603 c 2
 199 355 l 1
 537 355 l 1
 537 603 l 2
 537 624 484 620 472 632 c 0
 468 636 466 638 466 650 c 1
 702 650 l 1
EndSplineSet
EndChar

StartChar: T
Encoding: 84 84 42
Width: 619
VWidth: 0
Flags: W
HStem: -4 28<365.777 428.954> 603 47<81.6343 264 358 537.366>
VStem: 5 18<497.667 515.016> 264 94<32.9546 603> 596 18<497.667 515.016>
LayerCount: 2
Fore
SplineSet
358 603 m 25
 358 47 l 2
 358 29 421 29 426 24 c 0
 428 22 430 20 430 -4 c 1
 409 0 348 0 311 0 c 7
 274 0 220 0 193 -4 c 1
 193 8 195 14 199 18 c 0
 211 30 264 26 264 47 c 2
 264 603 l 25
 141 603 l 2
 57 603 23 494 23 494 c 1
 5 500 l 1
 28 650 l 1
 592 650 l 1
 614 500 l 1
 596 494 l 1
 596 494 562 603 478 603 c 2
 358 603 l 25
EndSplineSet
EndChar

StartChar: A
Encoding: 65 65 43
Width: 673
VWidth: 0
Flags: W
HStem: -4 28<125.968 202.384 608.813 666.954> 236 48<176 479> 640 20G<308.429 354.015>
LayerCount: 2
Fore
SplineSet
64 47 m 10
 288 638 l 18
 292 647 324.343 660 350 660 c 31
 358.03 660 365 659 368 650 c 10
 599 47 l 18
 605 30 659 29 664 24 c 0
 666 22 668 20 668 -4 c 1
 647 0 569 0 532 0 c 3
 495 0 458 0 431 -4 c 1
 431 8 433 14 437 18 c 0
 449 30 497 27 490 47 c 10
 278 615 l 25
 349 650 l 9
 119 47 l 18
 113 30 195 29 200 24 c 0
 202 22 203 20 203 -4 c 1
 182 0 140 0 103 0 c 3
 66 0 32 0 5 -4 c 1
 5 8 7 14 11 18 c 0
 23 30 56 27 64 47 c 10
176 284 m 1
 479 284 l 1
 479 236 l 1
 176 236 l 1
 176 284 l 1
EndSplineSet
EndChar

StartChar: N
Encoding: 78 78 44
Width: 702
VWidth: 0
Flags: MW
HStem: -4 28<171.777 234.954> 629 21<22.9663 62.6907 621.971 651.318>
VStem: 100 64<32.9546 493 617 622> 537 64<158 618.714>
DStem2: 537 158 164 493 0.603359 -0.797469<-256.548 0>
LayerCount: 2
Fore
SplineSet
537 0 m 5
 164 493 l 5
 164 47 l 2
 164 29 227 29 232 24 c 0
 234 22 236 20 236 -4 c 1
 215 0 149 0 112 0 c 0
 75 0 56 0 29 -4 c 1
 29 8 31 14 35 18 c 0
 47 30 100 26 100 47 c 2
 100 597 l 2
 100 622 38 617 26 629 c 0
 22 633 20 638 20 650 c 1
 170 650 l 5
 170 617 410 330 537 158 c 5
 537 603 l 1
 538 623 485 620 473 632 c 0
 469 636 467 638 467 650 c 1
 652 650 l 1
 652 626 650 628 648 626 c 0
 643 621 602 620 601 603 c 1
 601 -12 l 1
 575 -12 558 -12 537 0 c 5
EndSplineSet
EndChar

StartChar: R
Encoding: 82 82 46
Width: 687
VWidth: 0
Flags: W
HStem: 0 19<246.652 270.954 640.357 682> 279 30<374.7 401.5> 286 41<198 244> 603 47<198.271 340.907>
VStem: 105 93<33.1309 286 327 601.42> 422 95<382.658 529.348>
LayerCount: 2
Fore
SplineSet
682 0 m 1xdc
 654 0 l 18
 324 0 401.5 279.5 262 279 c 9
 409 309 l 17
 430 148.5 598 19 687 19 c 1
 682 0 l 1xdc
244 280 m 2
 198 286 l 1xbc
 198 47 l 2
 198 29 263 29 268 24 c 0
 270 22 272 20 272 -4 c 1
 251 0 183 0 146 0 c 3
 109 0 72 0 45 -4 c 1
 45 8 47 14 51 18 c 0
 63 30 105 26 105 47 c 2
 105 603 l 2
 105 624 63 620 51 632 c 0
 47 636 45 642 45 654 c 1
 72 650 115 650 152 650 c 2
 295 650 l 2
 443 650 517 542 517 479 c 3
 517 390 480.434 249.161 244 280 c 2
248 603 m 2
 229 603 l 2
 222 603 198 597 198 578 c 2
 198 327 l 1
 244 327 l 2
 344 327 422 359 422 455 c 3
 422 519 376 603 248 603 c 2
EndSplineSet
EndChar

StartChar: P
Encoding: 80 80 47
Width: 617
VWidth: 0
Flags: W
HStem: -4 28<207.249 281.182> 268 48<198 400.468> 603 47<198.271 400.907>
VStem: 105 93<33.8841 268 316 601.42> 482 95<383.762 529.348>
LayerCount: 2
Fore
SplineSet
317 268 m 2
 198 268 l 1
 198 47 l 2
 198 29 273 29 278 24 c 0
 281 21 282 19 282 -4 c 1
 260 -1 183 0 146 0 c 0
 109 0 72 -1 45 -4 c 1
 45 8 47 14 51 18 c 0
 63 30 105 26 105 47 c 2
 105 603 l 6
 105 624 63 620 51 632 c 0
 47 636 45 642 45 654 c 1
 72 650 115 650 152 650 c 2
 355 650 l 2
 503 650 577 542 577 479 c 3
 577 354 516 268 317 268 c 2
308 603 m 2
 229 603 l 2
 222 603 198 597 198 578 c 2
 198 316 l 1
 294 316 l 2
 394 316 482 360 482 455 c 3
 482 519 436 603 308 603 c 2
EndSplineSet
EndChar

StartChar: J
Encoding: 74 74 48
Width: 305
VWidth: 0
Flags: W
HStem: -270 71<-56 54.4527> 626 24<210.258 269.318>
VStem: 106 92<-73.4711 617.045>
LayerCount: 2
Fore
SplineSet
270 650 m 1
 270 626 268 628 266 626 c 0
 261 621 198 621 198 603 c 10
 198 97 l 18
 198 -155 94 -270 -36 -270 c 3
 -76 -270 -126 -242 -126 -222 c 3
 -126 -172 -65 -157 -48 -157 c 1
 -48 -169 4 -199 35 -199 c 3
 97 -199 106 -167 106 168 c 10
 106 603 l 18
 106 624 53 620 41 632 c 0
 37 636 35 638 35 650 c 1
 270 650 l 1
EndSplineSet
EndChar

StartChar: S
Encoding: 83 83 49
Width: 526
VWidth: 0
Flags: W
HStem: -10 36<196.489 333.801> 624 36<206.771 352.726>
VStem: 50 33<143.714 177.869> 68 83<442.154 560.599> 393 83<79.8927 214.179> 424 33<490.131 536.45>
LayerCount: 2
Fore
SplineSet
476 184 m 3xd8
 476 85 434 -10 273 -10 c 3
 152 -10 89 40 70 49 c 1
 50 176 l 1
 59 180 78 179 83 179 c 1
 100 122 175 26 261 26 c 3
 369 26 393 111 393 149 c 3xe8
 393 242 287 273 257 282 c 0
 235 289 68 343 68 471 c 3
 68 564 128 660 288 660 c 7
 350 660 404 637 437 619 c 1
 457 492 l 1
 448 488 429 489 424 489 c 1xd4
 407 546 391 624 276 624 c 3
 169 624 151 541 151 506 c 3
 151 415 256 381 293 369 c 0
 327 358 476 323 476 184 c 3xd8
EndSplineSet
EndChar

StartChar: U
Encoding: 85 85 50
Width: 721
VWidth: 0
Flags: W
HStem: -10 47<276.411 466.197> 626 24<35.3875 93.7417 491.682 549.935>
VStem: 106 93<127.447 617.045> 562 60<145.068 617.045>
LayerCount: 2
Fore
SplineSet
681 650 m 1
 681 638 680 636 676 632 c 1
 664 620 622 624 622 603 c 10
 622 260 l 18
 622 102 554 -10 348 -10 c 3
 179 -10 106 89 106 260 c 10
 106 603 l 18
 106 621 43 621 38 626 c 1
 36 628 35 626 35 650 c 1
 270 650 l 1
 270 638 268 636 264 632 c 1
 252 620 199 624 199 603 c 10
 199 260 l 18
 199 116 239 37 373 37 c 3
 508 37 562 135 562 260 c 10
 562 603 l 18
 562 621 500 621 495 626 c 1
 493 628 491 626 491 650 c 1
 681 650 l 1
EndSplineSet
EndChar

StartChar: Q
Encoding: 81 81 51
Width: 729
VWidth: 0
Flags: W
HStem: -269 19<652.742 702> -10 42<290.025 470.628> 619 41<265.727 440.764>
VStem: 40 101<202.589 449.026> 589 100<186.044 448.246>
LayerCount: 2
Fore
SplineSet
702 -269 m 1
 674 -269 l 17
 423 -269 393 1 317 1 c 9
 449 31 l 17
 528 -185 618 -250 707 -250 c 1
 702 -269 l 1
EndSplineSet
Refer: 32 79 N 1 0 0 1 0 0 2
EndChar

StartChar: V
Encoding: 86 86 52
Width: 692
VWidth: 0
Flags: W
HStem: -10 21G<332.662 365.571> 626 24<5.38745 59.8666 485.387 545.15>
LayerCount: 2
Fore
SplineSet
687 650 m 1
 687 638 685 636 681 632 c 1
 669 620 624 623 616 603 c 10
 386 0 l 18
 383 -9 366.448 -10 353 -10 c 27
 334.26 -10 308 -10 306 0 c 10
 76 603 l 18
 70 620 13 621 8 626 c 1
 6 628 5 626 5 650 c 1
 254 650 l 1
 254 638 252 636 248 632 c 1
 236 620 176 623 183 603 c 10
 396 35 l 25
 325 0 l 9
 556 603 l 18
 562 620 493 621 488 626 c 1
 486 628 485 626 485 650 c 1
 687 650 l 1
EndSplineSet
EndChar

StartChar: W
Encoding: 87 87 53
Width: 987
VWidth: 0
Flags: W
HStem: -10 21G<332.639 365.571 650.866 684.571> 626 24<5.38745 59.8666 358.387 412.867 780.682 840.362>
LayerCount: 2
Fore
SplineSet
982 650 m 1
 982 638 981 636 977 632 c 1
 965 620 919 623 912 603 c 10
 705 0 l 18
 702 -10 685.448 -10 672 -10 c 27
 653.26 -10 628.152 -9.69824 625 0 c 10
 429 603 l 22
 423 620 366 621 361 626 c 5
 359 628 358 626 358 650 c 5
 607 650 l 5
 607 638 605 636 601 632 c 5
 589 620 529 623 536 603 c 14
 715 35 l 25
 644 0 l 9
 851 603 l 18
 857 620 789 621 784 626 c 1
 782 628 780 626 780 650 c 1
 982 650 l 1
546 422 m 1
 386 0 l 2
 383 -9 366.448 -10 353 -10 c 27
 334.26 -10 308 -10 306 0 c 10
 76 603 l 18
 70 620 13 621 8 626 c 1
 6 628 5 626 5 650 c 1
 254 650 l 1
 254 638 252 636 248 632 c 1
 236 620 176 623 183 603 c 10
 396 35 l 25
 325 0 l 1
 511 487 l 1
 546 422 l 1
EndSplineSet
EndChar

StartChar: X
Encoding: 88 88 55
Width: 682
VWidth: 0
Flags: MW
HStem: 0 18<207.011 218.954 644.525 672.884> 626 24<20.9663 86.7474 599.577 650.023>
DStem2: 88 47 148 47 0.602521 0.798103<36.1512 327.957 437.424 701.305> 182 650 110 597 0.56231 -0.826927<0 311.751 387.2 724.189>
LayerCount: 2
Fore
SplineSet
148 47 m 10
 325 279 l 25
 514 0 l 25
 514 0 651 0 677 0 c 1
 677 12 676 14 672 18 c 1
 660 30 605 25 586 52 c 10
 386 350 l 25
 577 603 l 18
 588 617 641 621 646 626 c 0
 648 628 651 626 651 650 c 1
 447 650 l 1
 447 638 449 636 453 632 c 0
 465 620 531 620 518 603 c 10
 357 392 l 29
 182 650 l 21
 18 650 l 1
 18 638 20 633 24 629 c 1
 36 617 90 627 110 597 c 14
 297 322 l 29
 88 47 l 18
 75 30 23 30 11 18 c 0
 7 14 5 8 5 -4 c 1
 32 0 86 0 123 0 c 0
 160 0 199 0 220 -4 c 1
 220 20 218 22 216 24 c 0
 211 29 138 33 148 47 c 10
EndSplineSet
EndChar

StartChar: Y
Encoding: 89 89 56
Width: 622
VWidth: 0
Flags: W
HStem: -4 28<362.9 426.384> 626 24<5.38745 55.4822 414.387 473.369>
VStem: 263 92<32.9546 319>
LayerCount: 2
Fore
SplineSet
355 319 m 25
 355 47 l 2
 355 29 419 29 424 24 c 0
 426 22 427 20 427 -4 c 1
 406 0 347 0 310 0 c 3
 273 0 219 0 192 -4 c 1
 192 8 194 14 198 18 c 0
 210 30 263 26 263 47 c 2
 263 319 l 25
 355 319 l 25
617 650 m 1
 617 638 615 636 611 632 c 1
 599 620 558 620 546 603 c 10
 346 272 l 18
 341 264 327 260 313 260 c 27
 294 260 271 264 266 272 c 10
 76 603 l 18
 66 618 13 621 8 626 c 1
 6 628 5 626 5 650 c 1
 255 650 l 1
 255 638 254 636 250 632 c 1
 238 620 173 620 185 603 c 10
 351 307 l 25
 284 272 l 9
 485 603 l 18
 495 618 422 621 417 626 c 1
 415 628 414 626 414 650 c 1
 617 650 l 1
EndSplineSet
EndChar

StartChar: M
Encoding: 77 77 57
Width: 845
VWidth: 0
Flags: HMW
HStem: -20 20G<73.5 110.5 717.5 754.5> -4 28<151.499 215.384 585.099 647.487 770.452 833.954> 400 20G<611.906 625.448>
DStem2: 80 47 144 47 0.0780645 0.996948<-6.98796 357.033> 128 660 171 398 0.52519 -0.850985<245.541 561.702> 423 182 393 38 0.521306 0.85337<0 307.884> 715 660 624 420 0.0764477 -0.997074<232.341 620.967>
LayerCount: 2
Fore
SplineSet
393 38 m 25x60
 624 420 l 1
 651 47 l 2
 653 25 598 30 586 18 c 0
 582 14 580 8 580 -4 c 1x60
 607 0 699 0 736 0 c 3xa0
 773 0 814 0 835 -4 c 1
 835 20 833 22 831 24 c 0
 826 29 763.378 29.0244 762 47 c 2
 715 660 l 1
 423 182 l 1
 128 660 l 1
 80 47 l 2
 78.3535 25.9688 27 30 15 18 c 0
 11 14 10 8 10 -4 c 1x60
 37 0 55 0 92 0 c 3xa0
 129 0 195 0 216 -4 c 1
 216 20 215 22 213 24 c 0
 208 29 143 29 144 47 c 2
 171 398 l 1
 393 38 l 25x60
EndSplineSet
EndChar

StartChar: K
Encoding: 75 75 58
Width: 652
VWidth: 0
Flags: MW
HStem: -4 28<215.777 278.954> 626 24<220.258 279.318 389.387 438.052>
VStem: 116 92<32.9547 257 336 617.045>
DStem2: 208 336 301 361 0.668503 0.74371<80.7635 359.011> 301 361 240 296 0.650392 -0.759599<9.70005 336.348>
LayerCount: 2
Fore
SplineSet
585 650 m 1
 585 638 583 636 579 632 c 0
 567 620 528 619 514 603 c 2
 301 361 l 1
 569 48 l 2
 583 32 634 30 646 18 c 0
 650 14 652 9 652 -3 c 1
 625 1 564 0 508 0 c 3
 466 0 421 1 400 -3 c 1
 400 21 402 22 404 24 c 0
 409 29 459 34 448 48 c 2
 240 296 l 1
 208 257 l 1
 208 47 l 2
 208 29 271 29 276 24 c 0
 278 22 280 20 280 -4 c 1
 259 0 200 0 163 0 c 3
 126 0 72 0 45 -4 c 1
 45 8 47 14 51 18 c 0
 63 30 116 26 116 47 c 2
 116 603 l 2
 116 624 63 620 51 632 c 0
 47 636 45 638 45 650 c 1
 280 650 l 1
 280 626 278 628 276 626 c 0
 271 621 208 621 208 603 c 2
 208 336 l 1
 448 603 l 2
 460 616 397 621 392 626 c 0
 390 628 389 626 389 650 c 1
 585 650 l 1
EndSplineSet
EndChar

StartChar: Z
Encoding: 90 90 59
Width: 582
VWidth: 0
Flags: W
HStem: 0 47<194 464.624> 603 47<108.741 376>
VStem: 40 28<515.795 547.744> 514 28<110.205 144.066>
LayerCount: 2
Fore
SplineSet
511 650 m 9
 194 47 l 25
 396 47 l 6
 430 47 490 60 514 145 c 5
 519 145 533 146 542 142 c 5
 516 12 l 5
 497 3 436 0 384 0 c 6
 53 0 l 25
 376 603 l 17
 168 603 l 2
 122 603 85 571 68 514 c 1
 63 514 49 514 40 518 c 1
 66 632 l 1
 85 641 112 650 156 650 c 2
 511 650 l 9
EndSplineSet
EndChar

StartChar: zero
Encoding: 48 48 60
Width: 584
VWidth: 0
Flags: W
HStem: -10 39<231.842 355.391> 621 39<240.067 356.263>
VStem: 50 89<173.431 464.571> 445 89<175.408 469.72>
LayerCount: 2
Fore
SplineSet
295 621 m 3
 208 621 139 489 139 325 c 3
 139 164 185 29 295 29 c 3
 399 29 445 170 445 325 c 3
 445 495 400 621 295 621 c 3
50 325 m 3
 50 493 137 660 295 660 c 3
 453 660 534 494 534 325 c 3
 534 113 430 -10 295 -10 c 3
 154 -10 50 110 50 325 c 3
EndSplineSet
EndChar

StartChar: one
Encoding: 49 49 61
Width: 426
VWidth: 0
Flags: W
HStem: -4 22<91.0991 139.051 313.078 345.182> 569 30<80 135>
VStem: 181 82<33.8841 555.954>
LayerCount: 2
Fore
SplineSet
80 569 m 1
 80 599 l 1
 133 599 233 624 269 665 c 1
 266 648 263 620 263 581 c 2
 263 47 l 18
 263 29 337 29 342 24 c 0
 345 21 346 19 346 -4 c 1
 324 -1 253 0 216 0 c 0
 179 0 113 -1 86 -4 c 1
 86 8 88 14 92 18 c 0
 104 30 181 26 181 47 c 10
 181 518 l 18
 181 544 164 560 135 563 c 10
 80 569 l 1
EndSplineSet
EndChar

StartChar: two
Encoding: 50 50 62
Width: 479
VWidth: 0
Flags: W
HStem: 0 77<142 372.101> 613 47<137.113 265.502>
VStem: 312 99<416.252 563.475> 422 27<143.248 174.066>
LayerCount: 2
Fore
SplineSet
411 485 m 3
 411 409.974 253 180 142 77 c 9
 304 77 l 2
 338 77 398 90 422 175 c 1
 427 175 440 176 449 172 c 1
 423 12 l 1
 404 3 344 0 292 0 c 2
 25 0 l 17
 137 152 312 340.796 312 476 c 3
 312 533 285 613 207 613 c 3
 154.521 613 114 596 78 489 c 5
 73 489 60 488 51 492 c 5
 77 617 l 5
 96 626 131.973 660 207 660 c 3
 326 660 411 588 411 485 c 3
EndSplineSet
EndChar

StartChar: seven
Encoding: 55 55 63
Width: 501
VWidth: 0
Flags: W
HStem: 0 21G<145 248> 567 83<93.741 397>
VStem: 25 28<479.934 512.621> 145 93<0 35.1359>
LayerCount: 2
Fore
SplineSet
145 0 m 17
 234 150 316 355 397 567 c 5
 153 567 l 6
 107 567 70 536 53 479 c 1
 48 479 34 478 25 482 c 1
 51 632 l 1
 70 641 97 650 141 650 c 2
 496 650 l 1
 367 375 258 111 238 0 c 9
 145 0 l 17
EndSplineSet
EndChar

StartChar: comma
Encoding: 44 44 64
Width: 260
VWidth: 0
Flags: W
HStem: 13 96<79.8187 134.877>
VStem: 137 53<-73.8802 57.2665>
LayerCount: 2
Fore
SplineSet
130 13 m 1
 114 13 70 25 70 61 c 3
 70 97 104 109 117 109 c 3
 147 109 190 95.5331 190 19 c 3
 190 -80 126.75 -137 102 -137 c 9
 76 -111 l 17
 92 -111 137 -51.5144 137 -32 c 3
 137 0.00879016 130 13 130 13 c 1
EndSplineSet
EndChar

StartChar: question
Encoding: 63 63 68
Width: 439
VWidth: 0
Flags: W
HStem: -13 112<156.658 243.342> 613 47<132.423 274.78>
VStem: 55 27<513.795 544.865> 130 57<230.925 288.127> 145 110<-1.78199 87.782> 296 103<484.231 592.227>
LayerCount: 2
Fore
SplineSet
187 280 m 7xf4
 187 298 399 452 399 542 c 3
 399 625 308 660 230 660 c 3
 133 660 100 640 81 631 c 1
 55 516 l 1
 64 512 77 512 82 512 c 1
 99 569 131 613 206 613 c 3
 284 613 296 569 296 530 c 3
 296 453 130 273 130 256 c 7
 130 231 168 186 176 159 c 13
 230 217 l 21
 210 217 187 261 187 280 c 7xf4
EndSplineSet
Refer: 4 46 N 1 0 0 1 75 0 2
EndChar

StartChar: hyphen
Encoding: 45 45 71
Width: 400
VWidth: 0
Flags: W
HStem: 190 65<80 320>
VStem: 70 260
LayerCount: 2
Fore
SplineSet
320 190 m 25
 70 190 l 25
 80 255 l 29
 330 255 l 29
 320 190 l 25
EndSplineSet
EndChar

StartChar: underscore
Encoding: 95 95 72
Width: 450
VWidth: 0
Flags: W
HStem: -110 60<0 450>
LayerCount: 2
Fore
SplineSet
450 -110 m 25
 0 -110 l 25
 0 -50 l 25
 450 -50 l 25
 450 -110 l 25
EndSplineSet
EndChar

StartChar: plus
Encoding: 43 43 73
Width: 450
VWidth: 0
Flags: W
HStem: 184 68<50 400>
VStem: 190 70<50 390>
LayerCount: 2
Fore
SplineSet
190 50 m 25
 190 390 l 25
 260 390 l 25
 260 50 l 25
 190 50 l 25
400 184 m 25
 50 184 l 25
 50 252 l 29
 400 252 l 29
 400 184 l 25
EndSplineSet
EndChar

StartChar: equal
Encoding: 61 61 74
Width: 410
VWidth: 0
Flags: W
HStem: 121 65<65 345> 264 65<65 345>
VStem: 55 300
LayerCount: 2
Fore
SplineSet
345 121 m 25
 55 121 l 25
 65 186 l 29
 355 186 l 25
 345 121 l 25
345 264 m 25
 55 264 l 25
 65 329 l 29
 355 329 l 25
 345 264 l 25
EndSplineSet
EndChar

StartChar: four
Encoding: 52 52 75
Width: 529
VWidth: 0
Flags: W
HStem: 0 21G<317 409> 160 54<129 322 404 462.506> 630 20G<275 410>
VStem: 322 82<0.955551 160 214 545>
LayerCount: 2
Fore
SplineSet
322 545 m 1
 251 458 168 328 129 214 c 1
 322 214 l 1
 322 545 l 1
405 581 m 2
 404 214 l 1
 464 217 456 230 482 262 c 1
 487 262 500 263 509 259 c 1
 491 172 l 1
 472 163 433 160 399 160 c 1
 399 96 403.5 19.5 409 0 c 1
 317 0 l 1
 321 16.5 327 110 327 160 c 1
 45 160 l 1
 128 331 217 495 333 650 c 1
 410 650 l 1
 408.25 626.925 405 616 405 581 c 2
EndSplineSet
EndChar

StartChar: three
Encoding: 51 51 76
Width: 526
VWidth: 0
Flags: W
HStem: -10 36<171.244 305.759> 613 47<158.897 295.67>
VStem: 50 33<137.408 177.869> 61 27<489.934 521.61> 343 86<448.216 565.215> 383 88<116.015 243.463>
LayerCount: 2
Fore
SplineSet
429 505 m 7xc8
 429 608 359.518 660 227 660 c 7
 130 660 106 616 87 607 c 5
 61 492 l 5
 70 488 83 489 88 489 c 5
 105 546 152 613 227 613 c 7
 301.607 613 343 553.369 343 496 c 7xd8
 343 430.5 290.144 344.403 186 363 c 6
 158 368 l 5
 158 318 l 5
 213 322 l 6
 297.2 328.124 383 262 383 169 c 7
 383 133.645 354.26 26 231 26 c 7
 145 26 100 122 83 179 c 5
 78 179 59 180 50 176 c 5
 70 49 l 5
 89 40 131.493 -10 203 -10 c 7
 359.5 -10 471 78.9512 471 204 c 7xe4
 471 294.089 370 346 306 349 c 5
 366 368 429 470 429 505 c 7xc8
EndSplineSet
EndChar

StartChar: five
Encoding: 53 53 77
Width: 531
VWidth: 0
Flags: W
HStem: 0 36<91 234.954> 573 77<172.559 427> 640 20G<438.75 440.862>
VStem: 393 83<147.257 273.165>
LayerCount: 2
Fore
SplineSet
91 36 m 3xd0
 326 36 393 142.992 393 209 c 3
 393 324.018 243 351 83 402 c 9
 159 650 l 17
 377 650 l 2xd0
 430.5 650 432.5 653 445 660 c 9xb0
 427 573 l 25
 207 573 l 18
 179.5 573 160.268 539.106 160.268 514.81 c 3
 160.268 472.981 162.5 466.5 191 457 c 1
 360 405 476 377.015 476 244 c 3
 476 105.968 367 0 83 0 c 0
 91 36 l 3xd0
EndSplineSet
EndChar

StartChar: six
Encoding: 54 54 78
Width: 486
VWidth: 0
Flags: W
HStem: -10 39<192.443 318.465> 331 39<207.679 317.293>
VStem: 35 89<108.414 343.052> 372 89<95.7032 273.788>
LayerCount: 2
Fore
SplineSet
166 306 m 1
 178 313 219.38 331 257 331 c 3
 329.527 331 372 271.102 372 172 c 3
 372 43 291 29 247 29 c 3
 179 29 124 105.989 124 211 c 3
 124 452.117 246.5 557 368 640 c 9
 330 650 l 17
 228.5 591 35 442.001 35 216 c 3
 35 47.4053 153 -10 234 -10 c 3
 327 -10 461 32 461 188 c 3
 461 311.172 369.505 370 271 370 c 3
 227.316 370 178 333 170 327 c 1
 166 306 l 1
EndSplineSet
EndChar

StartChar: nine
Encoding: 57 57 79
Width: 481
VWidth: 0
Flags: W
HStem: 300 39<174.715 284.059> 621 39<170.649 293.557>
VStem: 35 89<393.993 558.549> 362 89<329.242 541.586>
LayerCount: 2
Fore
SplineSet
310 354 m 5
 298 347 266.62 339 229 339 c 7
 156.473 339 124 417.998 124 478 c 7
 124 607 195 621 239 621 c 7
 307 621 362 544.011 362 439 c 7
 362 254.999 209 98 108 0 c 13
 166 10 l 21
 253.5 78 451 259.994 451 434 c 7
 451 602.595 333 660 252 660 c 7
 159 660 35 618 35 462 c 7
 35 377.963 116.495 300 215 300 c 7
 258.684 300 298 327 306 333 c 5
 310 354 l 5
EndSplineSet
EndChar

StartChar: parenleft
Encoding: 40 40 80
Width: 315
VWidth: 0
Flags: W
HStem: -60 34<233.077 285> 676 34<245.725 285>
VStem: 50 69<146.062 448.303>
LayerCount: 2
Fore
SplineSet
295 -60 m 17
 154 -60 50 80 50 295 c 3
 50 463 137 710 295 710 c 13
 285 676 l 21
 198 676 119 479 119 315 c 3
 119 154 175 -26 285 -26 c 9
 295 -60 l 17
EndSplineSet
EndChar

StartChar: slash
Encoding: 47 47 82
Width: 345
VWidth: 0
Flags: MW
HStem: 635 20G<234.326 305>
VStem: 40 265
DStem2: 40 -50 105 -50 0.257663 0.966235<16.7481 776.209>
LayerCount: 2
Fore
SplineSet
105 -50 m 29
 40 -50 l 29
 240 700 l 29
 305 700 l 29
 105 -50 l 29
EndSplineSet
EndChar

StartChar: bar
Encoding: 124 124 84
Width: 185
VWidth: 0
Flags: W
HStem: 680 20G<60 125>
VStem: 60 65<-50 700>
LayerCount: 2
Fore
SplineSet
125 -50 m 25
 60 -50 l 25
 60 700 l 29
 125 700 l 29
 125 -50 l 25
EndSplineSet
EndChar

StartChar: numbersign
Encoding: 35 35 85
Width: 570
VWidth: 0
Flags: MW
HStem: 205 65<50 490> 385 65<80 520> 680 20G<226.533 295 396.533 465>
DStem2: 100 -50 165 -50 0.170787 0.985308<11.1011 761.183> 270 -50 335 -50 0.170787 0.985308<11.1011 761.183>
LayerCount: 2
Fore
SplineSet
490 205 m 25
 40 205 l 25
 50 270 l 25
 500 270 l 25
 490 205 l 25
520 385 m 25
 70 385 l 25
 80 450 l 25
 530 450 l 25
 520 385 l 25
335 -50 m 25
 270 -50 l 25
 400 700 l 25
 465 700 l 25
 335 -50 l 25
165 -50 m 25
 100 -50 l 25
 230 700 l 25
 295 700 l 25
 165 -50 l 25
EndSplineSet
EndChar

StartChar: bracketleft
Encoding: 91 91 86
Width: 255
VWidth: 0
Flags: W
HStem: -50 66<125 235> 634 66<125 235>
VStem: 60 175<-49 16 634 699> 60 65<16 634>
LayerCount: 2
Fore
SplineSet
235 699 m 1xe0
 235 634 l 1xe0
 125 634 l 1
 125 16 l 1xd0
 235 16 l 1
 235 -49 l 1xe0
 60 -50 l 1
 60 700 l 1xd0
 235 699 l 1xe0
EndSplineSet
EndChar

StartChar: less
Encoding: 60 60 89
Width: 395
VWidth: 0
Flags: MW
VStem: 40 330
DStem2: 120.11 210 40 172 0.869244 -0.494383<0 288.406> 70 268 120.11 210 0.873019 0.487686<15.4615 303.847>
LayerCount: 2
Fore
SplineSet
370 66 m 5
 360 -10 l 5
 40 172 l 5
 70 268 l 1
 360 430 l 1
 370 354 l 1
 120.11 210 l 5
 370 66 l 5
EndSplineSet
EndChar

StartChar: eight
Encoding: 56 56 92
Width: 486
VWidth: 0
Flags: W
HStem: -10 39<172.801 304.539> 621 39<188.019 307.262>
VStem: 40 79<81.3766 234.982> 60 89<436.275 575.723> 347 79<434.946 583.542> 357 89<85.0638 218.231>
LayerCount: 2
Fore
SplineSet
252 359 m 1xd8
 303 400 347 436.994 347 518 c 3
 347 584.62 296 621 252 621 c 3
 184 621 149 582.385 149 499 c 3xd8
 149 343.884 446 340.503 446 166 c 3
 446 43.7998 328 -10 247 -10 c 3
 128.983 -10 40 54.9951 40 168 c 7
 40 258 139 321 230 360 c 1
 244 321 l 1
 176 278 119 247.047 119 152 c 7
 119 58.9941 190 29 234 29 c 3
 302 29 357 66.9951 357 161 c 3xe4
 357 305.5 60 297.437 60 494 c 3
 60 606.071 158 660 239 660 c 3
 332 660 426 618.568 426 502 c 3
 426 414 351 355 266 320 c 1
 252 359 l 1xd8
EndSplineSet
EndChar

StartChar: asterisk
Encoding: 42 42 93
Width: 400
VWidth: 0
Flags: W
HStem: 334 326
VStem: 160 80<601.2 641.75>
LayerCount: 2
Fore
SplineSet
110 334 m 25
 60 382 l 25
 200 512 l 25
 200 444 l 25
 110 334 l 25
200 444 m 25
 200 502 l 25
 330 587 l 29
 360 524 l 25
 200 444 l 25
290 334 m 25
 200 444 l 25
 200 512 l 25
 340 382 l 25
 290 334 l 25
185 450 m 25
 160 640 l 25
 240 660 l 25
 215 450 l 25
 185 450 l 25
200 444 m 25
 30 514 l 25
 70 577 l 25
 200 502 l 25
 200 444 l 25
EndSplineSet
EndChar

StartChar: percent
Encoding: 37 37 94
Width: 695
VWidth: 0
Flags: MW
HStem: -10 39<472.769 567.501> 236 39<472.116 570.235> 375 39<132.769 227.501> 621 39<132.116 230.235>
VStem: 30 77<441.048 584.091> 248 77<438.668 593.792> 370 77<56.0482 199.091> 588 77<53.6678 208.792>
DStem2: 100 90 195 90 0.648119 0.761539<61.5713 617.171>
LayerCount: 2
Fore
SplineSet
518 236 m 3
 461.465 236 447 181.003 447 133 c 3
 447 92.9717 460.5 29 517 29 c 3
 580.571 29 588 77.8164 588 133 c 3
 588 176.003 593.605 236 518 236 c 3
370 127 m 3
 370 206.002 446.493 275 520 275 c 3
 608.5 275 665 204.018 665 139 c 3
 665 38.9688 601.592 -10 514 -10 c 3
 406.481 -10 370 79.9336 370 127 c 3
178 621 m 3
 121.465 621 107 566.003 107 518 c 3
 107 477.972 120.5 414 177 414 c 3
 240.571 414 248 462.816 248 518 c 3
 248 561.003 253.605 621 178 621 c 3
30 512 m 3
 30 591.002 106.493 660 180 660 c 3
 268.5 660 325 589.018 325 524 c 3
 325 423.969 261.592 375 174 375 c 3
 66.4814 375 30 464.934 30 512 c 3
195 90 m 29
 100 90 l 29
 500 560 l 29
 595 560 l 29
 195 90 l 29
EndSplineSet
EndChar

StartChar: degree
Encoding: 176 176 95
Width: 415
VWidth: 0
Flags: W
HStem: 420 39<161.403 260.831> 666 39<158.984 263.333>
VStem: 60 67<492.541 629.091> 288 67<483.668 638.792>
LayerCount: 2
Fore
SplineSet
208 666 m 7
 151.465 666 127 611.003 127 563 c 7
 127 522.972 150.5 459 207 459 c 7
 270.571 459 288 507.816 288 563 c 7
 288 606.003 283.605 666 208 666 c 7
60 557 m 7
 60 636.002 136.493 705 210 705 c 7
 298.5 705 355 634.018 355 569 c 7
 355 468.969 291.591 420 204 420 c 7
 96.4814 420 60 509.934 60 557 c 7
EndSplineSet
EndChar

StartChar: at
Encoding: 64 64 96
Width: 657
VWidth: 0
Flags: W
HStem: -60 39<247.43 445> 80 56<286.051 360.382 422.49 528.312> 301 46<306.551 374> 441 39<261.919 443.596>
VStem: 40 76<106.386 307.028> 194 84<141.93 271.268> 374 76<144.91 301> 551 66<160.011 323.99>
LayerCount: 2
Fore
SplineSet
278 200 m 3
 278 153 293.262 136 324 136 c 27
 348.492 136 363 149 374 174 c 9
 374 301 l 17
 319 301 278 277 278 200 c 3
437 80 m 3
 407.979 80 381 97 381 129 c 1
 362 95 336 80 310 80 c 3
 270.987 80 194 114 194 188 c 3
 194 293 261 346 449 347 c 9
 450 194 l 18
 450.092 180 453 135 472 135 c 3
 497.318 135 551 151 551 219 c 3
 551 303 510.03 441 360 441 c 7
 226.996 441 116 353.029 116 202 c 3
 116 65.8682 225.98 -21 329 -21 c 3
 411.72 -21 461.252 -1.45801 509 36 c 9
 533 6 l 17
 482.153 -43.1074 408.758 -60 326 -60 c 3
 184.968 -60 40 41 40 195 c 3
 40 367 170.956 480 352 480 c 7
 485.034 480 617 388.045 617 212 c 3
 617 123.994 523.093 80 437 80 c 3
EndSplineSet
EndChar

StartChar: grave
Encoding: 96 96 98
Width: 500
VWidth: 0
Flags: HMW
VStem: 70 260
LayerCount: 2
Fore
SplineSet
145 560 m 1
 230 586 l 5
 230 551 342 482 370 466 c 13
 340 441 l 17
 276 471 194 490 140 545 c 1
 145 560 l 1
EndSplineSet
EndChar

StartChar: asciicircum
Encoding: 94 94 99
Width: 500
VWidth: 0
Flags: HMW
VStem: 70 260
LayerCount: 2
Fore
SplineSet
216 545 m 1
 270 490 316 471 380 441 c 9
 410 466 l 21
 382 482 280 561 280 596 c 5
 220 596 l 5
 220 561 118 482 90 466 c 13
 120 441 l 17
 184 471 230 490 284 545 c 1
 216 545 l 1
EndSplineSet
EndChar

StartChar: cent
Encoding: 162 162 145
Width: 443
VWidth: 0
Flags: W
HStem: -10 39<210.36 340.138> 391 39<191.174 301.325>
VStem: 35 97<119.979 307.25> 220 65<-110 530>
LayerCount: 2
Fore
SplineSet
285 -110 m 29
 220 -110 l 29
 220 530 l 29
 285 530 l 29
 285 -110 l 29
EndSplineSet
Refer: 21 99 N 1 0 0 1 0 0 2
EndChar

StartChar: brokenbar
Encoding: 166 166 146
Width: 185
VWidth: 0
Flags: W
HStem: 680 20G<60 125>
VStem: 60 65<-50 280 370 700>
LayerCount: 2
Fore
SplineSet
125 370 m 25
 60 370 l 25
 60 700 l 25
 125 700 l 25
 125 370 l 25
125 -50 m 25
 60 -50 l 25
 60 280 l 29
 125 280 l 29
 125 -50 l 25
EndSplineSet
EndChar

StartChar: guillemotleft
Encoding: 171 171 147
Width: 515
VWidth: 0
Flags: MW
DStem2: 120.11 210 40 172 0.796802 -0.604241<0 216.337> 70 268 120.11 210 0.791782 0.610803<4.24989 226.721> 320.11 210 240 172 0.796802 -0.604241<0 216.337> 270 268 320.11 210 0.791782 0.610803<4.24989 220.613>
LayerCount: 2
Fore
SplineSet
490 76 m 1
 480 -10 l 1
 240 172 l 1
 270 268 l 1
 480 430 l 1
 490 344 l 1
 320.11 210 l 1
 490 76 l 1
290 76 m 1
 280 -10 l 1
 40 172 l 1
 70 268 l 1
 280 430 l 1
 290 344 l 1
 120.11 210 l 1
 290 76 l 1
EndSplineSet
EndChar

StartChar: periodcentered
Encoding: 183 183 149
Width: 260
VWidth: 0
Flags: W
HStem: 157 92<83.5156 166.048>
VStem: 80 90<160.217 245.503>
LayerCount: 2
Fore
SplineSet
125 249 m 31
 150 249 170 242 170 203 c 7
 170 160 150 157 125 157 c 31
 100 157 80 162 80 203 c 7
 80 244.012 100 249 125 249 c 31
EndSplineSet
EndChar

StartChar: cedilla
Encoding: 184 184 150
Width: 260
VWidth: 0
Flags: W
HStem: -165 15<52.6667 59.3691>
VStem: 130 60<-90.3655 -53.3092>
LayerCount: 2
Fore
SplineSet
55 -165 m 1
 50 -150 l 1
 82 -130 130 -83 130 -20 c 5
 149 -20 190 -53.9551 190 -65 c 3
 190 -85.0996 90 -155 55 -165 c 1
EndSplineSet
EndChar

StartChar: asciitilde
Encoding: 126 126 153
Width: 500
VWidth: 0
Flags: W
HStem: 170 65<266.225 366.558> 225 65<130.431 229.643>
LayerCount: 2
Fore
SplineSet
80 170 m 9x80
 60 190 l 17
 82 226 129 290 195 290 c 27x40
 248 290 267 235 320 235 c 31
 367 235 394 264 420 300 c 9
 440 280 l 17
 408 222 366 170 295 170 c 27x80
 245 170 230 225 180 225 c 27x40
 135 225 102 206 80 170 c 9x80
EndSplineSet
EndChar

StartChar: macron
Encoding: 175 175 158
Width: 500
VWidth: 0
Flags: W
HStem: 490 60<100 400>
VStem: 100 300<490 550>
LayerCount: 2
Fore
SplineSet
400 490 m 25
 100 490 l 29
 100 550 l 29
 400 550 l 25
 400 490 l 25
EndSplineSet
EndChar

StartChar: plusminus
Encoding: 177 177 164
Width: 450
VWidth: 0
Flags: W
HStem: 0 65<50 400> 214 68<50 400>
VStem: 190 70<80 420>
LayerCount: 2
Fore
SplineSet
400 0 m 29
 50 0 l 29
 50 65 l 29
 400 65 l 29
 400 0 l 29
EndSplineSet
Refer: 73 43 N 1 0 0 1 0 30 2
EndChar

StartChar: logicalnot
Encoding: 172 172 165
Width: 450
VWidth: 0
Flags: W
HStem: 240 65<50 330>
VStem: 330 70<120 240>
LayerCount: 2
Fore
SplineSet
330 240 m 1
 50 240 l 13
 50 305 l 25
 400 305 l 25
 400 120 l 17
 330 120 l 1
 330 240 l 1
EndSplineSet
EndChar

StartChar: divide
Encoding: 247 247 166
Width: 450
VWidth: 0
Flags: W
HStem: 27 92<183.516 266.048> 180 65<50 400> 307 92<183.516 266.048>
VStem: 180 90<30.2168 115.503 310.217 395.503>
LayerCount: 2
Fore
SplineSet
400 180 m 25
 50 180 l 25
 50 245 l 25
 400 245 l 25
 400 180 l 25
EndSplineSet
Refer: 149 183 S 1 0 0 1 100 -130 2
Refer: 149 183 N 1 0 0 1 100 150 2
EndChar

StartChar: multiply
Encoding: 215 215 167
Width: 415
VWidth: 0
Flags: MW
VStem: 40 330
DStem2: 95.1104 370 50 325 0.70059 -0.713564<0.506514 384.599> 50 95 95.1104 50 0.70059 0.713564<0 384.092>
LayerCount: 2
Fore
SplineSet
95.1104 50 m 1
 50 95 l 1
 320 370 l 1
 365 324 l 1
 95.1104 50 l 1
95.1104 370 m 5
 365 96 l 5
 320 50 l 5
 50 325 l 5
 95.1104 370 l 5
EndSplineSet
EndChar

